<?xml version="1.0" encoding="UTF-8"?>
<svg xmlns="http://www.w3.org/2000/svg" height="16px" viewBox="0 0 16 16" width="16px"><path d="m 15 7.984375 c 0 -0.550781 -0.449219 -1 -1 -1 h -8.585938 l 2.292969 -2.292969 c 0.1875 -0.1875 0.292969 -0.441406 0.292969 -0.707031 s -0.105469 -0.519531 -0.292969 -0.707031 c -0.390625 -0.390625 -1.023437 -0.390625 -1.414062 0 l -4 4 c -0.390625 0.390625 -0.390625 1.023437 0 1.414062 l 4 4 c 0.390625 0.390625 1.023437 0.390625 1.414062 0 s 0.390625 -1.023437 0 -1.414062 l -2.292969 -2.292969 h 8.585938 c 0.550781 0 1 -0.445313 1 -1 z m 0 0" fill="#222222"/></svg>
