<?xml version="1.0" encoding="UTF-8"?>
<svg xmlns="http://www.w3.org/2000/svg" height="16px" viewBox="0 0 16 16" width="16px"><g fill="#222222"><path d="m 7 5 c 0.195312 0 0.390625 0.058594 0.554688 0.167969 l 3 2 c 0.59375 0.394531 0.59375 1.269531 0 1.664062 l -3 2 c -0.164063 0.109375 -0.359376 0.167969 -0.554688 0.167969 c 0 0 -1 0 -1 -1 v -4 c 0 -1 1 -1 1 -1 z m 0 0"/><path d="m 10.960938 1.710938 c -0.445313 0.003906 -0.835938 0.308593 -0.953126 0.742187 c -0.113281 0.433594 0.074219 0.890625 0.457032 1.117187 c 2.117187 1.253907 3.027344 3.824219 2.167968 6.128907 c -0.855468 2.308593 -3.226562 3.660156 -5.648437 3.222656 c -2.078125 -0.375 -3.660156 -1.96875 -4.066406 -3.972656 h 0.492187 c 0.207032 0.003906 0.398438 -0.109375 0.503906 -0.289063 c 0.105469 -0.179687 0.109376 -0.402344 0.007813 -0.585937 l -1.480469 -2.660157 c -0.097656 -0.175781 -0.285156 -0.28125 -0.484375 -0.28125 c -0.199219 0.003907 -0.378906 0.113282 -0.472656 0.289063 l -1.4140625 2.644531 c -0.0976563 0.1875 -0.09375 0.414063 0.015625 0.59375 c 0.1093745 0.179688 0.3046875 0.292969 0.5156245 0.289063 h 0.289063 c 0.429687 2.972656 2.714844 5.394531 5.742187 5.941406 c 3.367188 0.605469 6.683594 -1.285156 7.875 -4.492187 c 1.195313 -3.207032 -0.078124 -6.804688 -3.023437 -8.546876 c -0.15625 -0.09375 -0.339844 -0.140624 -0.523437 -0.140624 z m 0 0"/><path d="m 3.625 5.390625 l -2.085938 -1.628906 c -0.167968 -0.128907 -0.253906 -0.335938 -0.226562 -0.546875 c 0.027344 -0.207032 0.160156 -0.386719 0.351562 -0.472656 l 2.375 -1.046876 c 0.1875 -0.082031 0.40625 -0.058593 0.570313 0.0625 c 0.167969 0.121094 0.253906 0.324219 0.230469 0.527344 l -0.3125 2.726563 c -0.023438 0.199219 -0.152344 0.375 -0.339844 0.453125 s -0.402344 0.050781 -0.5625 -0.074219 z m 0 0"/><path d="m 5.835938 3.304688 l -0.269532 -2.535157 c -0.023437 -0.210937 0.066406 -0.421875 0.234375 -0.550781 c 0.167969 -0.1328125 0.394531 -0.1640625 0.59375 -0.089844 l 2.65625 1.007813 c 0.183594 0.070312 0.3125 0.234375 0.335938 0.429687 c 0.023437 0.195313 -0.0625 0.386719 -0.222657 0.496094 l -2.402343 1.667969 c -0.171875 0.117187 -0.394531 0.136719 -0.585938 0.050781 c -0.1875 -0.085938 -0.320312 -0.269531 -0.339843 -0.476562 z m 0 0"/></g></svg>
