<?xml version="1.0" encoding="UTF-8"?>
<svg xmlns="http://www.w3.org/2000/svg" height="16px" viewBox="0 0 16 16" width="16px"><g fill="#222222"><path d="m 6 4.5 c 0 0.828125 -0.671875 1.5 -1.5 1.5 s -1.5 -0.671875 -1.5 -1.5 s 0.671875 -1.5 1.5 -1.5 s 1.5 0.671875 1.5 1.5 z m 0 0"/><path d="m 0 7.089844 c 0 0.847656 0.335938 1.660156 0.9375 2.261718 l 5.382812 5.382813 c 0.925782 0.925781 2.433594 0.925781 3.359376 0 l 4.964843 -4.964844 c 0.976563 -0.976562 0.976563 -2.5625 0 -3.539062 l -5.417969 -5.417969 c -0.519531 -0.519531 -1.226562 -0.8125 -1.960937 -0.8125 h -3.265625 c -2.207031 0 -4 1.792969 -4 4 z m 4 -5.089844 h 3.265625 c 0.207031 0 0.402344 0.082031 0.546875 0.226562 l 5.417969 5.417969 c 0.207031 0.207031 0.207031 0.503907 0 0.710938 l -4.964844 4.964843 c -0.15625 0.15625 -0.375 0.15625 -0.53125 0 l -5.382813 -5.382812 c -0.226562 -0.226562 -0.351562 -0.53125 -0.351562 -0.847656 v -3.089844 c 0 -1.117188 0.882812 -2 2 -2 z m 0 0"/></g></svg>
