<?xml version="1.0" encoding="UTF-8"?>
<svg xmlns="http://www.w3.org/2000/svg" height="16px" viewBox="0 0 16 16" width="16px"><g fill="#222222"><path d="m 3 3 c -1.109375 0 -2 0.890625 -2 2 v 6 h 1 v -2 h 2 v -2 h 2 v 2 h -2 v 2 h 2 v 2 h 2 v -2 h 3 v -6 c 0 -1.109375 -0.894531 -2 -2 -2 z m 1 8 h -2 v 1.734375 c 0.292969 0.167969 0.632812 0.265625 1 0.265625 h 1 z m 0 0"/><path d="m 14 5 l -3 3 l 1 1 h 2 v 2 h 1 v -6 z m 0 0"/><g fill-opacity="0.329412"><path d="m 11 8 l 3 -3 h 1 v 6 h -1 z m 0 0"/><path d="m 3 3 h 6 c 1.101562 0 2 0.894531 2 2 v 6 c 0 1.105469 -0.898438 2 -2 2 h -6 c -1.105469 0 -2 -0.894531 -2 -2 v -6 c 0 -1.105469 0.894531 -2 2 -2 z m 0 0"/></g></g></svg>
