<?xml version="1.0" encoding="UTF-8"?>
<svg xmlns="http://www.w3.org/2000/svg" height="16px" viewBox="0 0 16 16" width="16px"><g fill="#222222"><path d="m 8.253906 1 c -0.132812 0.007812 -0.265625 0.046875 -0.375 0.117188 l -3.75 2.25 c -0.210937 0.140624 -0.335937 0.382812 -0.328125 0.632812 c 0 0.25 0.113281 0.5 0.328125 0.636719 l 3.75 2.25 c 0.109375 0.070312 0.242188 0.109375 0.375 0.113281 h 0.75 v -2 c 1.746094 -0.003906 3.292969 1.132812 3.816406 2.800781 c 0.523438 1.664063 -0.089843 3.480469 -1.523437 4.480469 c -1.109375 0.757812 0.050781 2.417969 1.148437 1.636719 c 2.140626 -1.503907 3.066407 -4.222657 2.28125 -6.71875 c -0.789062 -2.5 -3.105468 -4.195313 -5.722656 -4.199219 v -2 z m 0 0"/><path d="m 1.960938 15.085938 c 1.621093 0 2.691406 -0.699219 2.691406 -1.769532 c 0 -0.761718 -0.511719 -1.335937 -1.3125 -1.492187 c 0.597656 -0.15625 0.972656 -0.640625 0.972656 -1.320313 c 0 -1.003906 -0.796875 -1.613281 -2.136719 -1.613281 c -0.710937 0 -1.421875 0.175781 -2.082031 0.53125 l 0.339844 1.117187 c 0.539062 -0.234374 1.007812 -0.363281 1.429687 -0.363281 c 0.539063 0 0.886719 0.207031 0.886719 0.554688 c 0 0.398437 -0.441406 0.667969 -1.101562 0.667969 h -0.417969 v 1.128906 h 0.417969 c 0.875 0 1.441406 0.285156 1.441406 0.71875 c 0 0.359375 -0.382813 0.558594 -1.070313 0.558594 c -0.527343 0 -1.117187 -0.113282 -1.621093 -0.324219 l -0.3476568 1.171875 c 0.6445308 0.304687 1.1992188 0.433594 1.9101568 0.433594 z m 0 0"/><path d="m 7.722656 15.085938 c 1.527344 0 2.5625 -1.246094 2.5625 -3.132813 c 0 -1.839844 -1.015625 -3.0625 -2.519531 -3.0625 c -1.535156 0 -2.566406 1.25 -2.566406 3.125 c 0 1.839844 1.015625 3.070313 2.523437 3.070313 z m 0.035156 -1.28125 c -0.617187 0 -1.015624 -0.738282 -1.015624 -1.839844 c 0 -1.078125 0.398437 -1.789063 0.988281 -1.789063 c 0.601562 0 1.007812 0.738281 1.007812 1.847657 c 0 1.066406 -0.398437 1.78125 -0.980469 1.78125 z m 0 0"/></g></svg>
