<?xml version="1.0" encoding="UTF-8"?>
<svg xmlns="http://www.w3.org/2000/svg" height="16px" viewBox="0 0 16 16" width="16px"><g fill="#222222"><path d="m 0.00390625 0 v 16 h 1.99999975 v -2 h 12 v 2 h 2 v -16 h -2 v 2 h -12 v -2 z m 1.99999975 4 h 12 v 8 h -12 z m 0 0"/><path d="m 7.003906 5 c 0.195313 0 0.390625 0.058594 0.554688 0.167969 l 3 2 c 0.59375 0.394531 0.59375 1.269531 0 1.664062 l -3 2 c -0.164063 0.109375 -0.359375 0.167969 -0.554688 0.167969 c 0 0 -1 0 -1 -1 v -4 c 0 -1 1 -1 1 -1 z m 0 0"/></g></svg>
