<?xml version="1.0" encoding="UTF-8"?>
<svg height="16px" viewBox="0 0 16 16" width="16px" xmlns="http://www.w3.org/2000/svg" xmlns:xlink="http://www.w3.org/1999/xlink">
    <path d="m 7.480469 0.015625 h 1.066406 c 0.589844 0 1.066406 0.476563 1.066406 1.066406 v 1.066407 c 0 0.589843 -0.476562 1.066406 -1.066406 1.066406 h -1.066406 c -0.589844 0 -1.066407 -0.476563 -1.066407 -1.066406 v -1.066407 c 0 -0.589843 0.476563 -1.066406 1.066407 -1.066406 z m 0 12.796875 h 1.066406 c 0.589844 0 1.066406 0.476562 1.066406 1.070312 v 1.0625 c 0 0.59375 -0.476562 1.070313 -1.066406 1.070313 h -1.066406 c -0.589844 0 -1.066407 -0.476563 -1.066407 -1.070313 v -1.0625 c 0 -0.59375 0.476563 -1.070312 1.066407 -1.070312 z m -5.5 -10.078125 l 0.753906 -0.753906 c 0.199219 -0.199219 0.46875 -0.3125 0.753906 -0.3125 c 0.28125 0 0.554688 0.113281 0.753907 0.3125 l 0.753906 0.753906 c 0.417968 0.417969 0.417968 1.089844 0 1.507813 l -0.753906 0.753906 c -0.199219 0.203125 -0.472657 0.316406 -0.753907 0.316406 c -0.285156 0 -0.554687 -0.113281 -0.753906 -0.316406 l -0.753906 -0.753906 c -0.203125 -0.199219 -0.316407 -0.46875 -0.316407 -0.753907 c 0 -0.28125 0.113282 -0.554687 0.316407 -0.753906 z m 9.050781 9.050781 l 0.753906 -0.753906 c 0.199219 -0.199219 0.472656 -0.3125 0.753906 -0.3125 c 0.285157 0 0.554688 0.113281 0.753907 0.3125 l 0.753906 0.753906 c 0.417969 0.417969 0.417969 1.089844 0 1.507813 l -0.753906 0.753906 c -0.199219 0.203125 -0.46875 0.316406 -0.753907 0.316406 c -0.28125 0 -0.554687 -0.113281 -0.753906 -0.316406 l -0.753906 -0.753906 c -0.203125 -0.199219 -0.3125 -0.46875 -0.3125 -0.753907 c 0 -0.28125 0.109375 -0.554687 0.3125 -0.753906 z m -11.015625 -3.238281 v -1.066406 c 0 -0.589844 0.472656 -1.066407 1.066406 -1.066407 h 1.066407 c 0.589843 0 1.066406 0.476563 1.066406 1.066407 v 1.066406 c 0 0.589844 -0.476563 1.066406 -1.066406 1.066406 h -1.066407 c -0.59375 0 -1.066406 -0.476562 -1.066406 -1.066406 z m 12.796875 0 v -1.066406 c 0 -0.589844 0.476562 -1.066407 1.066406 -1.066407 h 1.066406 c 0.59375 0 1.070313 0.476563 1.070313 1.066407 v 1.066406 c 0 0.589844 -0.476563 1.066406 -1.070313 1.066406 h -1.066406 c -0.589844 0 -1.066406 -0.476562 -1.066406 -1.066406 z m -10.078125 5.5 l -0.753906 -0.753906 c -0.203125 -0.199219 -0.316407 -0.46875 -0.316407 -0.753907 c 0 -0.28125 0.113282 -0.554687 0.316407 -0.753906 l 0.753906 -0.753906 c 0.199219 -0.199219 0.46875 -0.3125 0.753906 -0.3125 c 0.28125 0 0.554688 0.113281 0.753907 0.3125 l 0.753906 0.753906 c 0.417968 0.417969 0.417968 1.089844 0 1.507813 l -0.753906 0.753906 c -0.199219 0.203125 -0.472657 0.316406 -0.753907 0.316406 c -0.285156 0 -0.554687 -0.113281 -0.753906 -0.316406 z m 9.050781 -9.050781 l -0.753906 -0.753906 c -0.203125 -0.199219 -0.3125 -0.46875 -0.3125 -0.753907 c 0 -0.28125 0.109375 -0.554687 0.3125 -0.753906 l 0.753906 -0.753906 c 0.199219 -0.199219 0.472656 -0.3125 0.753906 -0.3125 c 0.285157 0 0.554688 0.113281 0.753907 0.3125 l 0.753906 0.753906 c 0.417969 0.417969 0.417969 1.089844 0 1.507813 l -0.753906 0.753906 c -0.199219 0.203125 -0.46875 0.316406 -0.753907 0.316406 c -0.28125 0 -0.554687 -0.113281 -0.753906 -0.316406 z m 0 0" fill="#241f31"/>
    <path d="m 8.015625 1.515625 c -3.574219 0 -6.5 2.925781 -6.5 6.5 c 0 3.570313 2.925781 6.5 6.5 6.5 c 3.570313 0 6.5 -2.929687 6.5 -6.5 c 0 -3.574219 -2.929687 -6.5 -6.5 -6.5 z m 0 3 c 1.949219 0 3.5 1.546875 3.5 3.5 c 0 1.949219 -1.550781 3.5 -3.5 3.5 c -1.953125 0 -3.5 -1.550781 -3.5 -3.5 c 0 -1.953125 1.546875 -3.5 3.5 -3.5 z m 0 0" fill="#241f31"/>
</svg>
